<?xml version="1.0" encoding="UTF-8" standalone="no"?>
<!-- Created with Inkscape (http://www.inkscape.org/) -->

<svg
   version="1.1"
   id="svg1"
   width="430.66574"
   height="258.81747"
   viewBox="0 0 430.66574 258.81747"
   sodipodi:docname="logo_desktop.svg"
   inkscape:version="1.4.2 (f4327f4, 2025-05-13)"
   xmlns:inkscape="http://www.inkscape.org/namespaces/inkscape"
   xmlns:sodipodi="http://sodipodi.sourceforge.net/DTD/sodipodi-0.dtd"
   xmlns="http://www.w3.org/2000/svg"
   xmlns:svg="http://www.w3.org/2000/svg">
  <defs
     id="defs1" />
  <sodipodi:namedview
     id="namedview1"
     pagecolor="#505050"
     bordercolor="#eeeeee"
     borderopacity="1"
     inkscape:showpageshadow="0"
     inkscape:pageopacity="0"
     inkscape:pagecheckerboard="0"
     inkscape:deskcolor="#505050"
     inkscape:zoom="1.2349816"
     inkscape:cx="214.17323"
     inkscape:cy="103.2404"
     inkscape:window-width="1366"
     inkscape:window-height="705"
     inkscape:window-x="-8"
     inkscape:window-y="-8"
     inkscape:window-maximized="1"
     inkscape:current-layer="g1" />
  <g
     inkscape:groupmode="layer"
     inkscape:label="Image"
     id="g1"
     transform="translate(-10.239429,-13.086206)">
    <path
       style="fill:#000000"
       d="m 62.809998,253.0332 c -0.810922,-24.56199 -1.994727,-36.46765 -3.848106,-38.70084 -0.809024,-0.97481 -0.768209,-1.72897 0.153693,-2.83979 0.962135,-1.1593 1.094488,-5.65446 0.566787,-19.25 -0.378657,-9.75563 -1.099322,-19.08751 -1.601477,-20.73751 -0.502155,-1.65 -1.039609,-13.81993 -1.194342,-27.04428 -0.254083,-21.71525 -0.466684,-24.32714 -2.194835,-26.96435 -1.757447,-2.68193 -2.00211,-2.77319 -3.000001,-1.1191 -0.597574,0.99054 -1.649139,2.54949 -2.336811,3.46435 -2.137688,2.84392 -0.164978,-1.64283 3.177306,-7.2265 2.539478,-4.24248 3.030056,-6.31604 3.705429,-15.662008 0.450173,-6.22961 0.387754,-12.13436 -0.148021,-14.0025 -0.509549,-1.7767 -0.674155,-3.63858 -0.365792,-4.13752 0.582397,-0.94234 0.561993,-20.17284 -0.02668,-25.14433 -0.48274,-4.07688 -2.313365,-5.423929 -9.091931,-6.69022 -7.864116,-1.469081 -12.363089,-1.293268 -15.246165,0.595796 -4.993897,3.272127 -8.636586,12.616884 -10.108061,25.930664 l -0.884181,8 -0.130797,-12.61514 c -0.11203,-10.80515 -0.406529,-12.96568 -2.052583,-15.0583 -1.898204,-2.41318 -1.897573,-2.458279 0.05145,-3.675462 1.709557,-1.067636 1.946956,-2.225119 1.776584,-8.662074 -0.233768,-8.832119 -2.921524,-17.568971 -6.977267,-22.680387 -4.5749564,-5.765774 -3.4629934,-5.621853 2.821023,0.365125 8.395746,7.998887 13.115699,10.121758 35.25,15.85422 14.614613,3.784972 16.025506,3.946512 17.920239,2.051779 1.59094,-1.59094 1.793506,-1.560234 3.353884,0.508406 1.752406,2.323217 9.439802,5.411832 13.469758,5.411832 1.313182,0 3.145519,0.404189 4.071861,0.898197 0.926343,0.494008 3.034259,1.038861 4.684259,1.210783 1.65,0.171923 3.711787,0.89396 4.58175,1.604527 0.869959,0.710567 2.669959,1.210825 3.999999,1.111684 2.36829,-0.176531 10.96038,1.596305 15.91825,3.284468 2.09092,0.711962 1.90052,0.792522 -1.16357,0.492352 -2.13707,-0.20935 -5.38195,0.41045 -7.78764,1.48751 -5.5173,2.47017 -7.14166,6.56234 -7.8128,19.68241 -0.289,5.64957 -0.64312,10.14957 -0.78692,10 -0.14381,-0.14956 -0.55788,-2.74693 -0.92017,-5.77193 -1.847234,-15.4241 -4.478913,-18.60931 -17.762218,-21.49822 -7.694924,-1.67352 -8.08859,-1.09457 -8.384812,12.33129 -0.129443,5.86681 -0.485516,15.48414 -0.791275,21.37184 -0.607402,11.696158 0.517637,20.152208 3.054043,22.954908 1.515553,1.67467 1.463195,1.93224 -0.758342,3.73068 -2.356677,1.90784 -2.389345,2.18312 -2.632131,22.17926 -0.235575,19.40226 0.614584,27.93024 2.784381,27.93024 0.528801,0 0.961456,0.47656 0.961456,1.05902 0,0.58246 -0.389859,0.81807 -0.866353,0.52358 -1.52803,-0.94438 -3.781101,2.74869 -5.480366,8.983 -1.850964,6.79087 -2.11256,13.34619 -0.725583,18.1823 0.688476,2.40057 0.534529,4.02282 -0.597008,6.29104 -1.992268,3.99359 -3.106433,22.36359 -1.419611,23.4061 0.747158,0.46177 0.846488,1.16262 0.268433,1.89399 -1.427559,1.80617 -3.166553,15.72974 -3.303722,26.45182 -0.303083,23.69101 -1.392747,23.81011 -2.171011,0.23729 z m 1.978335,-55.21564 c -0.319226,-0.79773 -0.556183,-0.56078 -0.604167,0.60417 -0.04342,1.05416 0.192928,1.64479 0.52522,1.3125 0.332291,-0.3323 0.367818,-1.1948 0.07895,-1.91667 z m 0,-5 c -0.319226,-0.79773 -0.556183,-0.56078 -0.604167,0.60417 -0.04342,1.05416 0.192928,1.64479 0.52522,1.3125 0.332291,-0.3323 0.367818,-1.1948 0.07895,-1.91667 z m -0.02083,-12.0625 c -0.277413,-0.6875 -0.504386,-0.125 -0.504386,1.25 0,1.375 0.226973,1.9375 0.504386,1.25 0.277412,-0.6875 0.277412,-1.8125 0,-2.5 z m 0.221332,-40.75 c -0.339013,-2.475 -0.676513,-3.31746 -0.75,-1.87212 -0.07349,1.44533 -0.800161,4.22315 -1.61483,6.17292 -1.139783,2.72789 -1.19741,3.63947 -0.25,3.95463 0.875106,0.29111 1.371052,4.86885 1.714682,15.82707 l 0.483464,15.4175 0.516536,-17.5 c 0.284094,-9.625 0.239161,-19.525 -0.09985,-22 z m 0.193643,-22.5 c 0.139701,-2.75 0.502784,-5.45 0.806852,-6 0.788614,-1.42645 0.08146,-14.456368 -0.918693,-16.927728 -0.889702,-2.19844 -1.1078,-0.76774 -1.360967,8.927728 -0.05745,2.2 -0.492738,4.60171 -0.967316,5.33713 -0.516109,0.79978 -0.415642,1.78436 0.25,2.45 0.612078,0.61208 1.112868,3.57287 1.112868,6.57954 0,6.71695 0.730028,6.46847 1.077256,-0.36667 z m 0.628477,-48.749998 c -0.238353,-1.2375 -0.433369,-0.225 -0.433369,2.25 0,2.475 0.195016,3.4875 0.433369,2.25 0.238353,-1.2375 0.238353,-3.2625 0,-4.5 z m 1.343099,-21.198833 c 1.692151,-1.692151 1.074424,-6.414836 -0.983091,-7.515984 -2.905827,-1.555152 -3.346049,-1.288157 -2.623403,1.591094 0.612427,2.440105 0.461961,2.588582 -2.122576,2.094516 -2.607343,-0.498425 -2.657541,-0.445789 -0.800745,0.839617 4.221523,2.922438 4.481713,3.54677 4.67968,11.22902 l 0.198697,7.71057 0.350135,-7.49883 c 0.192574,-4.12436 0.778161,-7.926861 1.301303,-8.450003 z m 33.951166,11.007853 c 0,-0.24255 -0.45,-0.7191 -1,-1.05902 -0.549998,-0.33992 -0.999998,-0.14148 -0.999998,0.44098 0,0.58246 0.45,1.05902 0.999998,1.05902 0.55,0 1,-0.19844 1,-0.44098 z M 24.072755,51.005061 c 0.451489,0 0.755994,-1.124647 0.676676,-2.499216 -0.228632,-3.962198 -2.126011,-2.261204 -2.316255,2.076516 -0.09462,2.157481 0.05087,3.135201 0.323324,2.172701 0.272451,-0.9625 0.864766,-1.750001 1.316255,-1.750001 z m 66.032464,-1 c 0,-0.55 -1.4625,-0.955144 -3.25,-0.90032 -3.079267,0.09444 -3.118667,0.14174 -0.75,0.90032 3.5288,1.130119 4,1.130119 4,0 z M 72.834386,46.400894 c -0.332292,-0.332291 -1.194792,-0.367818 -1.916667,-0.07895 -0.797733,0.319226 -0.560776,0.556183 0.604167,0.604167 1.054166,0.04342 1.644791,-0.192928 1.3125,-0.52522 z M 42.227103,39.101552 c -0.816207,-0.516977 -1.062193,-1.428141 -0.603296,-2.234688 0.599387,-1.053467 0.489631,-1.098509 -0.484752,-0.198935 -1.388898,1.282264 -0.596715,3.345887 1.27518,3.321819 0.783033,-0.01007 0.718934,-0.314304 -0.187132,-0.888196 z m -9.121884,-2.096491 c -1.958373,-1.265597 -3.282183,-1.265597 -2.500001,0 0.339919,0.55 1.378977,0.993109 2.309018,0.984687 1.457274,-0.0132 1.483669,-0.149288 0.190983,-0.984687 z m -8.321154,-5.783333 c -3.411209,-3.407096 -3.615276,-3.488262 -2.45,-0.974469 0.699134,1.508209 1.785508,2.745709 2.414164,2.75 0.628656,0.0043 1.426749,0.74721 1.773539,1.65093 0.34679,0.903721 0.934935,1.338721 1.306989,0.966667 0.372053,-0.372054 -0.998058,-2.348962 -3.044692,-4.393128 z M 403.20175,264.00506 c -0.12733,-6.325 -0.40587,-12.85 -0.61897,-14.5 -0.681,-5.2727 -1.72271,-23.84241 -1.59878,-28.5 0.0659,-2.475 -0.37592,-6.75 -0.98173,-9.5 -0.60581,-2.75 -1.23793,-6.39702 -1.40471,-8.1045 -0.43876,-4.49197 -3.88021,-10.68957 -8.21958,-14.80238 -4.22476,-4.00417 -6.35311,-4.6164 -5.56447,-1.60062 0.28658,1.09587 0.1604,4.13337 -0.28039,6.75 -0.79853,4.7402 -0.80422,4.72677 -1.56485,-3.69491 -0.62611,-6.93236 -1.27426,-9.18032 -3.60413,-12.5 -1.5624,-2.22618 -4.17233,-7.19759 -5.79983,-11.04759 l -2.95909,-7 -0.51082,5.5 -0.51083,5.5 -0.61286,-5.46312 c -0.33707,-3.00472 -0.16748,-6.74075 0.37687,-8.30228 0.55189,-1.58315 0.78519,-8.20438 0.52737,-14.96704 -0.44303,-11.62066 -0.36761,-12.21444 1.80327,-14.19772 1.2461,-1.13841 3.32684,-4.12821 4.62386,-6.64399 1.29702,-2.51579 2.79583,-4.44921 3.33068,-4.2965 0.53485,0.15271 3.89746,-2.41107 7.47246,-5.69729 l 6.5,-5.97495 -2.66129,-2.22855 c -6.45331,-5.403998 -10.74642,-8.728558 -11.27145,-8.728558 -0.31199,0 -0.61332,1.2375 -0.66962,2.75 -0.0959,2.57756 -0.15206,2.53971 -0.89493,-0.60379 -0.43591,-1.84458 -1.58572,-5.11269 -2.55513,-7.26246 -1.67266,-3.70928 -1.85655,-3.82361 -3.60507,-2.24122 -2.0383,1.84463 -2.36881,1.20939 -0.84864,-1.63107 0.54663,-1.02139 1.21923,-4.7043 1.49467,-8.18426 0.27545,-3.47996 0.76623,-9.16028 1.09063,-12.62293 0.34535,-3.68631 0.17155,-6.79971 -0.41932,-7.51167 -0.72702,-0.876 -0.31896,-1.54165 1.45964,-2.38101 2.28636,-1.07899 2.41808,-1.00424 1.78251,1.01166 -0.53319,1.69118 0.32728,1.24435 3.85742,-2.0031 4.19374,-3.857929 14.15096,-9.152219 16.05827,-8.538244 1.34492,0.43294 12.68105,-5.969361 12.69762,-7.171232 0.009,-0.674085 0.33672,-0.604085 0.83297,0.178079 2.35281,3.708396 16.74663,-6.954591 26.3751,-19.538754 4.45889,-5.827654 6.17571,-7.052162 2.8041,-2 -6.3498,9.514813 -9.41935,19.809055 -8.85975,29.712618 0.44644,7.900893 1.73158,10.155163 4.52938,7.945003 0.98003,-0.77419 0.5916,0.0389 -0.86317,1.80685 -2.34811,2.85362 -2.62757,3.99946 -2.48948,10.20725 0.1265,5.68744 0.52888,7.28585 2.15554,8.56278 1.9553,1.53492 1.95636,1.56381 0.0472,1.29275 -2.50364,-0.35545 -6.40241,6.38468 -7.51523,12.99226 -0.71602,4.25149 -0.8086,4.37846 -0.91431,1.25395 l -0.11766,-3.47654 -7.91283,7.86642 -7.91283,7.866428 5.16283,4.09454 c 2.83956,2.252 5.62049,3.9934 6.17986,3.86978 0.55937,-0.12362 1.45937,0.61391 2,1.63895 3.591,6.80858 9.1005,15.13995 10.32194,15.60866 0.79765,0.30609 2.39769,-0.23479 3.55565,-1.20196 1.30701,-1.09165 1.10517,-0.62679 -0.53228,1.22589 -3.50492,3.96564 -3.75954,5.06808 -4.2791,18.52789 -0.24507,6.34894 -0.52985,11.97394 -0.63284,12.5 -0.76257,3.8953 0.38837,7.77684 3.2996,11.12789 2.68849,3.09466 2.82282,3.44622 0.77749,2.0348 -3.6468,-2.51656 -5.82314,-2.0967 -8.00234,1.54379 -1.07,1.7875 -2.97588,4.56133 -4.2353,6.16406 -3.16207,4.02405 -4.78985,8.1904 -4.78985,12.25977 0,2.04149 -0.40727,3.1925 -1,2.82617 -0.55,-0.33992 -1,-1.77158 -1,-3.18146 0,-4.03839 -2.37562,-1.29601 -4.91835,5.67769 -3.73138,10.23365 -5.43167,25.14331 -7.01386,61.50377 -0.72984,16.77238 -0.74284,16.84602 -0.97126,5.5 z m 0.5976,-75.73278 c -0.62275,-0.84324 0.46668,-2.77379 3.44772,-6.10961 2.40446,-2.69063 5.44986,-7.66873 6.79345,-11.10483 2.20408,-5.63668 2.43869,-7.71512 2.47089,-21.8904 0.0379,-16.6679 -0.34531,-19.36234 -3.64952,-25.66238 -2.48916,-4.74601 -11.58496,-13.72415 -13.01107,-12.84277 -1.69844,1.04969 -8.15223,8.48407 -9.9956,11.51434 -0.9625,1.58222 -1.75,3.67589 -1.75,4.6526 0,0.97671 -0.54192,2.31775 -1.20426,2.98009 -1.70249,1.70249 -1.98415,29.26187 -0.354,34.63752 2.58205,8.51468 6.7078,15.32657 11.26501,18.59932 3.25572,2.33807 4.32879,3.71498 3.96862,5.0923 -0.27151,1.03826 0.028,3.28556 0.66548,4.99399 l 1.15915,3.10624 0.55228,-3.36681 c 0.30375,-1.85175 0.14258,-3.92157 -0.35815,-4.5996 z m -5.69413,1.2918 c 0,-0.24254 -0.45,-0.7191 -1,-1.05902 -0.55,-0.33992 -1,-0.14148 -1,0.44098 0,0.58246 0.45,1.05902 1,1.05902 0.55,0 1,-0.19844 1,-0.44098 z m 12.48746,-3.53915 c 2.77922,-4.40257 2.96772,-5.01987 1.53286,-5.01987 -0.85693,0 -5.02032,7.01607 -5.02032,8.46016 0,1.37808 1.18154,0.21253 3.48746,-3.44029 z m -20.90874,-4.79368 c -1.72194,-1.64929 -1.74325,-1.62798 -0.47833,0.47833 0.72815,1.21249 1.53915,1.98927 1.80223,1.72619 0.26308,-0.26308 -0.33267,-1.25511 -1.3239,-2.20452 z m 29.92128,-4.22619 c 0.33992,-0.55 -0.0835,-1 -0.94098,-1 -0.85746,0 -1.55902,0.45 -1.55902,1 0,0.55 0.42344,1 0.94098,1 0.51754,0 1.2191,-0.45 1.55902,-1 z m 5.81235,-24.84275 c 0.27122,-3.38649 0.13451,-6.15725 -0.30382,-6.15725 -0.43833,0 -0.75616,1.0125 -0.70629,2.25 0.0499,1.2375 -0.21851,4.95 -0.59638,8.25 -0.43989,3.84153 -0.3632,5.24714 0.21315,3.90725 0.49511,-1.15102 1.12211,-4.86352 1.39334,-8.25 z m -47.13139,-6.396 c -0.22459,-0.95632 -0.81452,-1.48772 -1.31096,-1.1809 -0.49644,0.30681 -0.66294,0.94566 -0.37,1.41965 0.29294,0.47399 0.10844,1.12397 -0.41002,1.44439 -0.58555,0.36189 -0.59173,1.8061 -0.0163,3.81249 0.50948,1.77646 0.99713,4.80789 1.08367,6.73652 0.0865,1.92863 0.44413,0.3566 0.79465,-3.4934 0.35052,-3.85 0.45356,-7.78244 0.22897,-8.73875 z m 46.68221,-10.01125 c -0.13778,-3.06903 -0.86207,-5.87313 -1.74348,-6.75 -1.34171,-1.33478 -1.418,-1.27971 -0.69265,0.5 0.44832,1.1 1.04289,4.1375 1.32127,6.75 0.67922,6.37421 1.40879,6.04701 1.11486,-0.5 z m -46.05177,-3.25 0.048,-2 -0.85943,2 c -0.47269,1.1 -0.83782,3.35 -0.8114,5 l 0.048,3 0.76337,-3 c 0.41985,-1.65 0.78498,-3.9 0.8114,-5 z m 0.87171,-4.6875 c -0.31922,-0.79773 -0.55618,-0.56078 -0.60416,0.60417 -0.0434,1.05416 0.19293,1.64479 0.52522,1.3125 0.33229,-0.3323 0.36781,-1.1948 0.0789,-1.91667 z m 2.31689,-3.8125 c 0.5887,-1.1 0.89928,-2 0.69017,-2 -0.20911,0 -1.19468,0.9 -2.19017,2 -0.99549,1.1 -1.30606,2 -0.69017,2 0.61589,0 1.60147,-0.9 2.19017,-2 z m 36.02981,-5.94431 c -0.57231,-1.06937 -1.55767,-2.26389 -2.1897,-2.6545 -0.77001,-0.4759 -0.88183,-0.24684 -0.33892,0.6943 2.14477,3.718 4.40855,5.47289 2.52862,1.9602 z m -28.26188,-3.05569 c 1.04175,-1.66811 0.99869,-2 -0.25946,-2 -0.82966,0 -1.50847,0.1882 -1.50847,0.41821 0,0.23002 -0.27314,1.13002 -0.60699,2 -0.86935,2.26549 0.8927,1.9552 2.37492,-0.41821 z m 20.23207,-5 c 0,-0.55 -0.47656,-1 -1.05902,-1 -0.58246,0 -0.7809,0.45 -0.44098,1 0.33992,0.55 0.81648,1 1.05902,1 0.24254,0 0.44098,-0.45 0.44098,-1 z m -7.81754,-9.41029 c -0.48085,-1.838768 -0.55082,-1.826238 -1.31337,0.23514 -0.44301,1.19756 -0.51609,2.93147 -0.16241,3.85315 0.57517,1.49887 0.71381,1.47404 1.31337,-0.23515 0.36867,-1.051 0.44175,-2.78492 0.16241,-3.85314 z m 10.12325,-14.813508 c 4.72811,-7.54865 5.77056,-24.98694 1.90712,-31.90251 -4.26635,-7.636769 -14.03725,-7.28824 -21.11561,0.7532 -4.53254,5.14924 -6.12195,10.02984 -6.02114,18.48913 0.0773,6.49012 1.98228,13.79272 3.36088,12.88398 0.41719,-0.275 1.27704,0.7118 1.91078,2.19289 0.63374,1.48108 3.10842,4.22763 5.49927,6.10344 l 4.34701,3.41056 4.20282,-4.60344 c 2.31155,-2.5319 4.97054,-5.82916 5.90887,-7.32725 z m 1.28499,6.48116 c -0.6935,-0.69349 -2.5907,0.71555 -2.5907,1.9241 0,0.66309 0.57378,0.58723 1.52417,-0.20152 0.83829,-0.69572 1.31823,-1.47088 1.06653,-1.72258 z m -32.85618,-15.25736 c 0.0877,-2.2 -0.26664,-4 -0.7875,-4 -1.06048,0 -1.27186,3.98991 -0.34003,6.41821 0.86172,2.24562 0.94902,2.05839 1.12753,-2.41821 z m 44.54965,-13.02134 c -1.36019,-5.20139 -3.39392,-0.21579 -2.53232,6.20789 l 0.56257,4.19432 1.24359,-4.21178 c 0.68398,-2.31647 1.01075,-5.10217 0.72616,-6.19043 z m -44.90261,5.4694 c 0.34149,-0.88992 0.17385,-1.29132 -0.39301,-0.94098 -0.5437,0.33602 -0.98855,1.0344 -0.98855,1.55194 0,1.43843 0.71677,1.12146 1.38156,-0.61096 z m 1.53284,-6.94806 c 0.0302,-0.55 -0.38124,-0.325 -0.9144,0.5 -0.53316,0.825 -0.94464,2.175 -0.9144,3 0.058,1.58385 1.72467,-1.60578 1.8288,-3.5 z m 21.81437,-18.10456 c -0.69989,-0.699897 -3.72877,0.71897 -3.72877,1.746732 0,0.51083 0.93781,0.426291 2.08565,-0.18801 1.1471,-0.613912 1.88651,-1.315337 1.64312,-1.558722 z m 18.63286,0.104559 c 0.31658,-0.825 0.13972,-1.5 -0.39301,-1.5 -0.53274,0 -0.96862,-0.903813 -0.96862,-2.008474 0,-1.749471 -0.25461,-1.849467 -1.97441,-0.775433 -1.65573,1.03402 -1.73643,1.366222 -0.5,2.058164 0.81092,0.453818 1.47441,1.477763 1.47441,2.275433 0,1.901548 1.62599,1.867336 2.36163,-0.04969 z M 226.96993,252.07695 c -216.730501,-238.990744 -216.730501,-238.990744 0,0 z m -0.90385,-12.65522 c -0.23758,-35.91597 -3.03311,-67.62905 -6.27757,-71.21413 -0.92581,-1.02301 -1.68329,-3.27182 -1.68329,-4.99735 0,-3.40231 -2.82925,-10.20519 -4.24423,-10.20519 -0.48059,0 -0.63194,-0.39134 -0.33634,-0.86964 0.54891,-0.88815 -3.23325,-13.13036 -4.05655,-13.13036 -0.24943,0 -0.17445,1.6875 0.16663,3.75 0.46146,2.79049 0.34904,3.3662 -0.43938,2.25 -0.58273,-0.825 -1.0664,-2.9257 -1.07482,-4.66821 -0.0193,-3.98536 -0.89782,-6.33113 -2.3723,-6.33407 -0.62865,-0.001 -1.1924,-1.38036 -1.25276,-3.06467 -0.0604,-1.68431 -1.00061,-4.27079 -2.08944,-5.74772 -1.08882,-1.47693 -2.23548,-3.81033 -2.54813,-5.18533 -0.31265,-1.375 -2.38508,-6.775 -4.60539,-12 l -4.03694,-9.499998 0.029,27.999998 c 0.0341,32.86999 0.73353,40.67137 3.95374,44.09914 1.81424,1.93116 1.94191,2.40086 0.65261,2.40086 -5.41181,0 -7.44375,8.61667 -7.84987,33.28821 -0.11579,7.03352 -0.58972,13.02258 -1.05319,13.30902 -0.46344,0.28644 -0.84264,-4.88737 -0.84264,-11.49736 0,-19.73417 -2.72065,-33.24166 -6.96691,-34.58937 -1.97275,-0.62612 -1.96947,-0.67753 0.23302,-3.65619 2.11383,-2.85877 2.24774,-4.10035 2.49154,-23.10158 0.21038,-16.39667 -0.0149,-20.49635 -1.22782,-22.34755 -1.31658,-2.00935 -1.31148,-2.68352 0.0448,-5.92961 1.25456,-3.00257 1.43561,-6.87289 1.00481,-21.479498 -0.62406,-21.15993 -1.94762,-25.3963 -10.38699,-33.24607 -5.4649,-5.08311 -5.84731,-6.24675 -0.78684,-2.39429 6.82573,5.19633 19.14499,9.64429 26.71124,9.64429 h 3.32816 l -2.33173,1.63321 c -1.92656,1.34941 -2.23344,2.23889 -1.76609,5.11885 0.46002,2.83479 6.54696,18.63455 10.69004,27.747938 0.50007,1.1 2.94812,7.03992 5.44012,13.19982 3.70258,9.15235 8.13682,18.29948 8.87143,18.30036 0.458,5.5e-4 -0.32487,-50.296668 -0.84749,-54.448798 -0.77812,-6.18201 -3.0507,-10.1221 -6.71332,-11.6392 -4.52517,-1.87439 -4.28338,-2.99825 0.29734,-1.38208 2.29138,0.80844 5.68457,1.4699 7.54042,1.4699 2.95331,0 3.37427,0.31925 3.37427,2.55902 0,1.51805 0.42333,2.29738 1.04068,1.91584 0.57237,-0.35375 0.78588,-1.44595 0.47447,-2.42713 -0.46204,-1.45574 0.19418,-1.90554 3.56685,-2.44485 2.27318,-0.3635 6.65657,-1.54785 9.74087,-2.63189 7.58483,-2.66586 7.69476,-2.46459 0.71398,1.30713 -9.41276,5.08569 -9.97184,6.62063 -10.3661,28.45983 -0.26568,14.716078 -0.0391,18.819588 1.17335,21.249998 0.82644,1.65663 1.09997,3.01205 0.60785,3.01205 -1.70275,0 -2.58068,6.54365 -2.26706,16.89744 0.17322,5.71859 0.79621,10.97732 1.38442,11.68607 0.69354,0.83567 0.73984,1.92627 0.13171,3.10257 -2.47727,4.79177 -2.95671,12.07788 -3.83719,58.31392 -0.34039,17.875 -0.78651,32.6875 -0.99136,32.91667 -0.20486,0.22916 -0.39008,-2.24584 -0.41161,-5.5 z m -37.82382,-69.07764 c 0.62524,-0.75607 0.564,-1.40577 -0.1756,-1.86286 -0.62462,-0.38604 -0.9136,-1.5511 -0.64218,-2.58903 0.27143,-1.03793 0.13809,-1.88714 -0.2963,-1.88714 -1.24457,0 -1.85582,4.87563 -1.17644,9.38377 0.56675,3.76078 0.65098,3.85717 0.97539,1.11623 0.19528,-1.65 0.78709,-3.52244 1.31513,-4.16097 z m 36.52524,-6.58903 c -0.27741,-0.6875 -0.50439,-0.125 -0.50439,1.25 0,1.375 0.22698,1.9375 0.50439,1.25 0.27741,-0.6875 0.27741,-1.8125 0,-2.5 z m -0.80419,-14 c -0.10735,-6.24161 -0.29662,-7.27623 -0.77746,-4.25 l -0.63556,4 -2.2188,-3.5 c -1.22034,-1.925 -2.22392,-3.05 -2.23018,-2.5 -0.012,1.05126 5.32245,14.49113 5.75391,14.49674 0.1375,0.002 0.18614,-3.70924 0.10809,-8.24674 z m -37.17498,4.0625 c -0.31922,-0.79773 -0.55618,-0.56078 -0.60416,0.60417 -0.0434,1.05416 0.19292,1.64479 0.52522,1.3125 0.33229,-0.3323 0.36781,-1.1948 0.0789,-1.91667 z m 25.31689,-23.8125 c -1.12236,-2.2 -2.24685,-4 -2.49889,-4 -0.56025,0 1.53557,5.02232 2.8168,6.75 1.834,2.47308 1.68378,1.17364 -0.31791,-2.75 z m 13.69299,-7.73097 c -0.25354,-0.97297 -0.47766,-0.41903 -0.49804,1.23097 -0.0204,1.65 0.18706,2.44606 0.46099,1.76903 0.27392,-0.67703 0.29059,-2.02703 0.0371,-3 z m -38.57092,-0.94403 c -0.87155,-1.49877 -1.06669,-1.54197 -1.09166,-0.24167 -0.0323,1.68408 1.01919,3.2004 1.72792,2.49167 0.23375,-0.23375 -0.0526,-1.24625 -0.63626,-2.25 z m 17.32237,-8.26944 c -1.50492,-3.35342 -2.89464,-5.93869 -3.08827,-5.74506 -0.19363,0.19363 0.84609,3.1289 2.3105,6.52283 1.4644,3.39393 2.85413,5.97921 3.08827,5.74506 0.23415,-0.23415 -0.80557,-3.16942 -2.3105,-6.52283 z m 21.21784,-9.30556 c -0.27741,-0.6875 -0.50439,-0.125 -0.50439,1.25 0,1.375 0.22698,1.9375 0.50439,1.25 0.27741,-0.6875 0.27741,-1.8125 0,-2.5 z m -28.27182,-7.924638 c -0.96245,-2.82527 -1.08676,-3.34417 -1.33575,-5.57536 -0.1759,-1.57636 -0.26909,-1.56191 -0.93918,0.14568 -0.61036,1.55537 -1.11299,1.01682 -2.79992,-3 -1.86748,-4.44675 -4.95563,-12.90393 -5.91876,-16.20906 -0.2105,-0.72236 -0.79474,-1.05875 -1.29831,-0.74752 -0.50357,0.31122 0.12777,2.7286 1.40296,5.37196 1.2752,2.64336 2.63825,6.93803 3.02899,9.54372 0.39075,2.60568 0.93129,4.51677 1.2012,4.24686 0.72184,-0.72183 4.87724,4.52342 5.72278,7.22372 0.40048,1.27895 0.95314,2.10036 1.22814,1.82536 0.275,-0.275 0.14354,-1.54641 -0.29215,-2.82536 z m 28.29265,-5.01286 c -0.31922,-0.79773 -0.55618,-0.56078 -0.60416,0.60417 -0.0434,1.05416 0.19292,1.64479 0.52522,1.3125 0.33229,-0.3323 0.36781,-1.1948 0.0789,-1.91667 z m 64.41575,123.187498 c -0.28165,-18.4132 -2.53367,-30 -5.8308,-30 -0.77601,0 -2.10601,-0.69509 -2.95556,-1.54464 -2.54318,-2.54318 -3.79896,-1.10912 -4.04849,4.62324 -0.12979,2.98177 -0.56481,8.3464 -0.9667,11.9214 -0.69051,6.14233 -0.76423,5.78467 -1.33973,-6.5 -0.5701,-12.16938 -0.82181,-13.41531 -3.93956,-19.5 -1.8318,-3.575 -4.36621,-8.975 -5.63202,-12 l -2.30146,-5.5 -0.14463,4 -0.14463,4 -0.83564,-3.5 c -0.5016,-2.1009 -0.41341,-5.19821 0.22063,-7.74826 1.58803,-6.3869 0.58791,-25.91213 -1.43066,-27.9307 -1.47708,-1.47709 -1.47254,-1.81427 0.0559,-4.14693 1.31755,-2.01083 1.72265,-5.54416 1.94706,-16.9825 0.17552,-8.946338 -0.11208,-14.919888 -0.75566,-15.695358 -0.76414,-0.92074 -0.50258,-1.39225 0.98866,-1.78222 1.27747,-0.33407 2.25649,-1.67423 2.64607,-3.62214 0.34009,-1.70054 0.99589,-3.09189 1.45731,-3.09189 1.35979,0 5.80014,-7.12545 5.28192,-8.47592 -0.27123,-0.70681 0.94205,-1.81308 2.82698,-2.57764 1.81618,-0.73667 5.37692,-2.60099 7.91275,-4.14292 2.53583,-1.54194 5.11661,-2.80352 5.73508,-2.80352 1.90932,0 21.56927,-9.56429 27.63208,-13.442627 8.23443,-5.267496 7.82778,-3.802437 -0.52955,1.907873 -3.87204,2.645654 -8.67334,6.803444 -10.66953,9.239544 -3.08148,3.76053 -3.73251,5.43825 -4.31209,11.11223 -0.76335,7.47311 -0.84347,7.53179 -1.61527,1.18298 -0.30087,-2.475 -0.9485,-4.923 -1.43917,-5.43999 -1.47761,-1.55689 -7.35305,1.92109 -11.2224,6.64312 -6.3421,7.73969 -8.42181,14.94574 -9.32109,32.296868 l -0.67378,13 4.53835,-5.01989 c 2.49608,-2.76095 5.82724,-5.66695 7.40255,-6.4578 1.57532,-0.79085 4.88922,-3.00948 7.36422,-4.93028 2.475,-1.920808 3.7125,-2.579358 2.75,-1.463458 -2.65053,3.072968 -2.18041,3.883018 3.02832,5.217978 3.31433,0.84944 5.57177,2.21904 7.36806,4.47027 3.05855,3.83316 6.85362,11.02522 6.85362,12.98835 0,0.76167 0.89841,2.19791 1.99647,3.19163 1.58771,1.43687 1.75275,2.10045 0.80606,3.24114 -1.54151,1.8574 -2.17824,24.69151 -0.76231,27.33722 0.76721,1.43353 0.70211,1.9365 -0.25504,1.97053 -1.80226,0.0641 -10.7794,18.93033 -11.74848,24.69047 l -0.80146,4.76384 -0.11762,-4.19098 c -0.13222,-4.71132 -1.26549,-6.04071 -3.18148,-3.73207 -0.70976,0.85521 -2.5398,2.20097 -4.06675,2.99059 -3.52975,1.8253 -4.80412,6.08245 -5.51773,18.43246 -0.30191,5.225 -0.89616,12.65 -1.32056,16.5 l -0.77163,7 z m 1.96753,-35.33361 c -0.64538,-0.64538 0.32047,-2.28855 2.80654,-4.77461 2.32183,-2.32183 4.46257,-5.84441 5.52488,-9.09118 2.03826,-6.22956 3.91514,-22.25405 2.9551,-25.23012 -0.36735,-1.13876 -0.57456,-4.213 -0.46047,-6.83164 0.11572,-2.65583 -0.43866,-5.97224 -1.25372,-7.5 -0.80364,-1.50636 -2.02291,-4.24285 -2.70948,-6.08109 -0.78852,-2.11121 -2.44383,-3.91236 -4.4941,-4.89007 -3.05274,-1.45575 -3.458,-1.41667 -6.81336,0.65706 -1.96216,1.21267 -4.98394,4.30355 -6.71508,6.86862 -2.95891,4.38427 -3.17358,5.32422 -3.58226,15.68519 -0.38936,9.87101 0.21161,17.18236 2.12938,25.90617 1.0266,4.66995 3.26013,8.23388 7.19058,11.47369 3.02742,2.49546 3.46921,3.29977 2.4723,4.50097 -0.82467,0.99367 -0.87765,1.67033 -0.16526,2.11061 0.57671,0.35642 1.06617,1.63399 1.0877,2.83903 0.031,1.73253 0.3501,1.47437 1.52522,-1.2338 0.97465,-2.24616 1.14742,-3.76344 0.50203,-4.40883 z m -6.06639,-0.0594 c 0,-0.21616 -0.69837,-0.661 -1.55194,-0.98855 -0.88992,-0.34149 -1.29132,-0.17385 -0.94098,0.39301 0.58726,0.95021 2.49292,1.40545 2.49292,0.59554 z m 13.40018,-2.20745 c 0.44505,-1.15978 0.16358,-1.23644 -1.42269,-0.3875 -1.08762,0.58208 -1.97749,1.47837 -1.97749,1.99176 0,1.37766 2.75464,0.078 3.40018,-1.60426 z m 9.51422,-17.39954 c -0.0362,-0.98906 -0.34772,-0.81874 -0.9144,0.5 -1.18132,2.74909 -1.18132,4.32797 0,2.5 0.53316,-0.825 0.94464,-2.175 0.9144,-3 z m -37.9144,-5.5 c 0,-0.825 -0.43588,-1.5 -0.96862,-1.5 -0.53273,0 -0.70959,0.675 -0.39301,1.5 0.31659,0.825 0.75246,1.5 0.96862,1.5 0.21615,0 0.39301,-0.675 0.39301,-1.5 z m 39.68311,-6.6875 c -0.31922,-0.79773 -0.55618,-0.56078 -0.60416,0.60417 -0.0434,1.05416 0.19293,1.64479 0.52522,1.3125 0.33229,-0.3323 0.36781,-1.1948 0.0789,-1.91667 z m -0.0208,-9.0625 c -0.27741,-0.6875 -0.50439,-0.125 -0.50439,1.25 0,1.375 0.22698,1.9375 0.50439,1.25 0.27741,-0.6875 0.27741,-1.8125 0,-2.5 z m -0.9447,-13.48625 c -0.22985,-1.52006 -0.42406,-0.51375 -0.43157,2.23625 -0.007,2.75 0.18056,3.99369 0.41792,2.76375 0.23736,-1.22994 0.24351,-3.47994 0.0136,-5 z m -38.90043,-6.90908 c -0.12429,-1.84507 -0.53152,-3.35467 -0.90499,-3.35467 -1.0782,0 -1.80149,5.22016 -1.16812,8.4306 0.56719,2.87496 0.5945,2.88644 1.43859,0.60467 0.47323,-1.27927 0.75875,-3.83554 0.63449,-5.6806 z m 34.18282,-2.73223 c 0,-0.20765 -0.7875,-0.99515 -1.75,-1.75 -1.58606,-1.24387 -1.62143,-1.2085 -0.37756,0.37756 1.30637,1.66575 2.12756,2.19548 2.12756,1.37244 z m -34,-13.12244 c 0,-0.825 -0.17686,-1.5 -0.39301,-1.5 -0.21616,0 -0.65203,0.675 -0.96862,1.5 -0.31658,0.825 -0.13972,1.5 0.39301,1.5 0.53274,0 0.96862,-0.675 0.96862,-1.5 z m 1,-10.499998 c 0,-0.55 -0.19844,-1 -0.44098,-1 -0.24254,0 -0.7191,0.45 -1.05902,1 -0.33992,0.55 -0.14148,1 0.44098,1 0.58246,0 1.05902,-0.45 1.05902,-1 z m 3.9682,-11.05 c 0.0237,1.08218 0.3199,1.1619 1.16751,0.31429 0.84762,-0.84762 0.73292,-1.53852 -0.45218,-2.72361 -1.45052,-1.45053 -1.67854,-1.41852 -2.63571,0.36997 -1.56972,2.93304 -1.26616,4.76029 0.42038,2.53048 1.06793,-1.41193 1.47686,-1.54583 1.5,-0.49113 z m 68.7488,130.814028 c -1.28411,-26.77049 -3.72258,-36.25388 -9.72824,-37.83395 -2.08699,-0.54908 -2.21406,-0.772 -0.78713,-1.38086 2.98401,-1.27326 4.19664,-7.45999 4.41976,-22.54922 0.27643,-18.69398 -0.35236,-24.73097 -2.83442,-27.21303 -1.79989,-1.79989 -1.82589,-2.08648 -0.33839,-3.73015 2.45486,-2.71259 3.36018,-11.08141 2.92125,-27.004038 -0.45192,-16.39398 -1.35098,-19.05278 -6.44254,-19.05278 -1.66464,0 -4.46676,0.72392 -6.22695,1.6087 -3.86249,1.94155 -4.24911,2.32771 12.36154,-12.34671 6.90903,-6.10368 14.97904,-14.277074 17.93335,-18.163104 2.95432,-3.88603 5.52816,-6.908834 5.71965,-6.717344 0.19149,0.191491 -1.21824,2.726628 -3.13273,5.633637 -1.9145,2.90701 -3.98344,7.580326 -4.59765,10.385141 -1.22357,5.58743 -2.38204,53.885378 -1.43315,59.749458 0.32482,2.00738 1.37606,4.47713 2.33609,5.48832 1.66353,1.75219 1.6491,1.9166 -0.30711,3.50065 -1.92614,1.55969 -2.06707,2.85439 -2.28706,21.01168 -0.23747,19.59933 0.49699,25.78574 3.45474,29.09957 1.4351,1.60787 1.38881,1.75 -0.56997,1.75 -5.30841,0 -7.55919,9.2095 -8.79829,36 -0.34342,7.425 -0.72567,13.61881 -0.84944,13.76403 -0.12377,0.14521 -0.48976,-5.25479 -0.81331,-12 z m 1.18064,-45.01403 c -0.0885,-7.13593 -0.2319,-7.77736 -1.06161,-4.75 -1.0265,3.74539 -1.12786,8.40585 -0.24468,11.25 1.05658,3.40254 1.40749,1.65645 1.30629,-6.5 z m 0.10236,-16.75 c 0,-1.65 -0.17393,-3 -0.3865,-3 -0.21258,0 -0.58464,1.35 -0.82681,3 -0.24217,1.65 -0.0682,3 0.3865,3 0.45475,0 0.82681,-1.35 0.82681,-3 z m -0.31689,-12.1875 c -0.31922,-0.79773 -0.55618,-0.56078 -0.60416,0.60417 -0.0434,1.05416 0.19293,1.64479 0.52522,1.3125 0.33229,-0.3323 0.36781,-1.1948 0.0789,-1.91667 z m 0.24702,-25.3125 c -0.34985,-3.3 -0.70225,-4.56679 -0.78311,-2.8151 -0.0809,1.7517 -0.55569,4.2598 -1.05519,5.57356 -0.5809,1.52788 -0.49081,3.96021 0.25,6.74976 l 1.15817,4.36111 0.53311,-3.93467 c 0.29321,-2.16406 0.24687,-6.63466 -0.10298,-9.93466 z m 0.0699,-27.166668 c 0,-2.01666 -0.29075,-3.37591 -0.64612,-3.02055 -1.01836,1.01836 -1.21979,6.68722 -0.23761,6.68722 0.48605,0 0.88373,-1.65 0.88373,-3.66667 z m -0.29277,-12.57167 c -0.23919,-1.24391 -0.44398,-0.46166 -0.45508,1.73834 -0.0111,2.2 0.18461,3.21775 0.4349,2.26166 0.25029,-0.95609 0.25937,-2.75609 0.0202,-4 z m 0.74432,-12.68332 c 1.40297,-2.27006 -0.30431,-0.95204 -1.87813,1.4499 -0.91111,1.39054 -1.32792,3.06001 -0.92624,3.70994 0.46382,0.75049 0.98715,0.2214 1.43412,-1.4499 0.38709,-1.44738 1.0037,-3.11685 1.37025,-3.70994 z M 138.16794,213.50506 c -0.0797,-9.21459 -1.3758,-19.66082 -3.10184,-25 -0.96069,-2.9717 -8.0204,-8.10715 -9.33615,-6.7914 -0.34361,0.3436 -0.62474,4.37473 -0.62474,8.95807 0,4.88889 -0.41333,8.33333 -1,8.33333 -0.5742,0 -1.00237,-3.08705 -1.00558,-7.25 -0.007,-8.68047 -1.47282,-14.70658 -4.07561,-16.75139 -1.0511,-0.82577 -3.48232,-5.10077 -5.40273,-9.5 -1.92041,-4.39924 -3.49715,-7.21111 -3.50386,-6.24861 -0.007,0.9625 -0.41407,1.75 -0.90522,1.75 -1.5322,0 -2.09422,-2.90339 -1.07894,-5.57378 0.53457,-1.40603 0.97195,-8.99144 0.97195,-16.85646 0,-12.75137 -0.21504,-14.57342 -1.98564,-16.82437 -1.72085,-2.18772 -1.79106,-2.68582 -0.52646,-3.73535 1.94489,-1.61411 2.34065,-4.72954 2.91316,-22.932188 0.32256,-10.25582 0.11429,-16.11821 -0.62173,-17.5 -0.95536,-1.79359 -0.90121,-1.90839 0.39584,-0.83912 1.26482,1.04271 2.02432,0.43359 4.79946,-3.84918 1.81327,-2.79836 5.54774,-6.70502 8.2988,-8.68147 4.15626,-2.98598 5.72807,-3.54889 9.29664,-3.32944 2.36208,0.14525 5.16848,-0.20354 6.23644,-0.77509 1.5274,-0.81744 2.32176,-0.61929 3.7226,0.92863 0.97947,1.0823 2.20982,1.96782 2.7341,1.96782 0.52428,0 3.11047,0.98965 5.74709,2.19922 5.76061,2.64274 8.88666,7.00431 6.82364,9.52059 -1.17554,1.43382 -1.06186,1.55689 0.9573,1.03644 1.94391,-0.50105 2.52655,-0.002 3.84349,3.28887 0.85374,2.1337 2.40232,4.14925 3.44129,4.47901 1.75115,0.55579 1.77525,0.77322 0.3302,2.97865 -2.29885,3.50849 -1.60629,28.016738 0.89979,31.841498 0.95705,1.46065 1.31462,2.65572 0.7946,2.65572 -1.93653,0 -2.98463,6.88226 -3.01052,19.76832 -0.0147,7.29757 0.39793,14.38507 0.91687,15.75 0.68608,1.80451 0.60921,2.48456 -0.28171,2.49223 -0.67389,0.006 -3.36275,4.51826 -5.97525,10.02769 -3.59683,7.58525 -4.78638,11.28497 -4.89983,15.23945 -0.0857,2.98648 -0.31012,3.93792 -0.52421,2.22231 -0.62217,-4.98571 -1.32465,-7.5 -2.09546,-7.5 -0.40226,0 -2.59099,1.69985 -4.86384,3.77743 -4.98034,4.55247 -6.21075,9.33127 -6.50984,25.28349 -0.24984,13.32567 -1.68818,17.68619 -1.7941,5.43908 z m 1.24598,-34.1379 c -0.27758,-0.72337 1.09927,-3.18908 3.05967,-5.47936 4.73338,-5.52988 6.63735,-11.70327 7.54907,-24.47687 1.02623,-14.37803 0.52389,-24.08337 -1.39839,-27.01714 -1.42259,-2.17115 -1.41957,-2.61092 0.0332,-4.82806 1.26622,-1.93249 1.60305,-5.30882 1.62115,-16.25 0.0322,-19.472768 -1.91839,-26.726208 -8.54681,-31.781938 -2.9297,-2.2346 -3.75535,-2.43075 -6.25105,-1.48508 -8.37034,3.17166 -11.35249,10.88809 -11.96116,30.94986 -0.3849,12.686168 -0.20758,14.989158 1.39635,18.135168 1.65571,3.24758 1.68172,3.70212 0.26327,4.60045 -1.32573,0.83962 -1.57089,3.50813 -1.55451,16.92026 0.0113,9.27965 0.51226,17.57718 1.20057,19.88703 0.64962,2.17997 1.46135,5.29835 1.80385,6.92974 0.34718,1.65366 2.80673,5.15016 5.55841,7.90183 2.71461,2.71462 4.87158,5.42984 4.79325,6.03384 -0.0783,0.60399 0.22903,2.67317 0.68301,4.59817 l 0.82543,3.5 0.71472,-3.41135 c 0.39309,-1.87624 0.4876,-4.00319 0.21002,-4.72655 z m 5.1913,-0.3621 c 0.33992,-0.55 0.14148,-1 -0.44098,-1 -0.58247,0 -1.05903,0.45 -1.05903,1 0,0.55 0.19844,1 0.44098,1 0.24255,0 0.71911,-0.45 1.05903,-1 z m 3.53297,-4.5 c 1.35701,-1.85001 1.33579,-1.89707 -0.28297,-0.62756 -0.9625,0.75485 -1.75,1.84235 -1.75,2.41667 0,0.57432 0.12734,0.85672 0.28297,0.62756 0.15563,-0.22917 0.94313,-1.31667 1.75,-2.41667 z m -30.03297,-17.5 c 0,-0.55 -0.47656,-1 -1.05902,-1 -0.58246,0 -0.7809,0.45 -0.44098,1 0.33992,0.55 0.81648,1 1.05902,1 0.24254,0 0.44098,-0.45 0.44098,-1 z m -6.33772,-11.25 c -0.27741,-0.6875 -0.50439,-0.125 -0.50439,1.25 0,1.375 0.22698,1.9375 0.50439,1.25 0.27741,-0.6875 0.27741,-1.8125 0,-2.5 z m 46.33772,2.25 c 0,-0.55 -0.45,-1 -1,-1 -0.55,0 -1,0.45 -1,1 0,0.55 0.45,1 1,1 0.55,0 1,-0.45 1,-1 z m -41.31689,-2.1875 c -0.31922,-0.79773 -0.55618,-0.56078 -0.60416,0.60417 -0.0434,1.05416 0.19292,1.64479 0.52522,1.3125 0.33229,-0.3323 0.36781,-1.1948 0.0789,-1.91667 z m 40.97917,-8.0625 c -0.27741,-0.6875 -0.50439,-0.125 -0.50439,1.25 0,1.375 0.22698,1.9375 0.50439,1.25 0.27741,-0.6875 0.27741,-1.8125 0,-2.5 z m 1.53468,-19.48732 c 0.7381,-0.88936 0.71607,-1.26268 -0.0745,-1.26268 -0.61734,0 -1.14784,-1.4625 -1.17888,-3.25 l -0.0564,-3.25 -1.26292,3.5 c -0.73524,2.03763 -0.92057,4.20372 -0.44356,5.18426 0.45065,0.92634 0.89501,3.17634 0.98746,5 0.15493,3.05592 0.19995,3.00329 0.57452,-0.67158 0.22352,-2.19303 0.87798,-4.55553 1.45434,-5.25 z m -41.97823,-3.89878 c -0.24853,-1.30014 -0.79696,-2.3639 -1.21873,-2.3639 -1.4065,0 -1.73583,4.94845 -0.61122,9.1841 l 1.11122,4.18523 0.58531,-4.32076 c 0.32192,-2.37642 0.38196,-5.38452 0.13342,-6.68467 z m -0.5294,-12.1139 c -0.25153,-0.9625 -0.45733,-0.175 -0.45733,1.75 0,1.925 0.2058,2.7125 0.45733,1.75 0.25152,-0.9625 0.25152,-2.5375 0,-3.5 z m 0.0269,-11.999998 c -0.22912,-1.5125 -0.41659,-0.275 -0.41659,2.75 0,3.025 0.18747,4.2625 0.41659,2.75 0.22913,-1.5125 0.22913,-3.9875 0,-5.5 z m 40.51802,-8 c -0.24437,-2.3375 -0.80493,-4.25 -1.24567,-4.25 -0.78404,0 -0.7441,0.50879 0.49986,6.368 0.86239,4.06197 1.27071,2.90241 0.74583,-2.118 z m -39.55116,0.5625 c -0.31922,-0.79773 -0.55618,-0.56078 -0.60416,0.60417 -0.0434,1.05416 0.19292,1.64479 0.52522,1.3125 0.33229,-0.3323 0.36781,-1.1948 0.0789,-1.91667 z m 2.67752,-9.3151 c -0.84746,-2.20843 -2.32366,-0.0211 -2.34532,3.47511 l -0.0153,2.4725 1.49979,-2.14125 c 0.82489,-1.17769 1.21227,-2.89055 0.86084,-3.80636 z m 190.63939,17.85241 c -300.865791,-78.268666 -300.865791,-78.268666 0,0 z M 15.915193,82.005062 c -5.675764,-68.918856 -5.675764,-68.918856 0,0 z"
       id="path1"
       sodipodi:nodetypes="ssssssssssssssssscssssssssssssssssssscsssssssssssssssssssssssssssssssssssscssssssssssssssssssssscsssssssssssssssssssssssssssssssscsssssssssssssscccssssssscsssssssssssssscssssssssssscccssssssssssssssssssssssssssssssccssssssssssssssssssssssssssssssssssssssssccsscsscsssssssssssssssssssssssssssssssssssscsssssssssssscsssssssssssssssssssssssssssssssscssssccsssssssssssssscssssssssssssssssssssssssssssssssssssscsscscssccsssscssccssssssssssssssssssssssssscssccsssssssscccssssssssssssssssssssscsssssssssssscssssscsssssssssssssssssssssssssssssssssssssssssssssscsssssssssssssssssssssssssssssssssssssssssssssssssssssssssssssssssssssscssssssssssssssssssssscsscssssssssssssssssscsssssscssssssscsssssssssssssssscsccsssssssssssssssssssssssscssccsssscsccssssccssscssssssssssssssscssccsscsssssss" />
  </g>
</svg>
