<?xml version="1.0" encoding="UTF-8" standalone="no"?>
<!-- Created with Inkscape (http://www.inkscape.org/) -->

<svg
   version="1.1"
   id="svg1"
   width="410.43378"
   height="212.44377"
   viewBox="0 0 410.43378 212.44377"
   sodipodi:docname="logo_mobile.svg"
   inkscape:version="1.4.2 (f4327f4, 2025-05-13)"
   xmlns:inkscape="http://www.inkscape.org/namespaces/inkscape"
   xmlns:sodipodi="http://sodipodi.sourceforge.net/DTD/sodipodi-0.dtd"
   xmlns="http://www.w3.org/2000/svg"
   xmlns:svg="http://www.w3.org/2000/svg">
  <defs
     id="defs1" />
  <sodipodi:namedview
     id="namedview1"
     pagecolor="#505050"
     bordercolor="#eeeeee"
     borderopacity="1"
     inkscape:showpageshadow="0"
     inkscape:pageopacity="0"
     inkscape:pagecheckerboard="0"
     inkscape:deskcolor="#505050"
     showgrid="false"
     inkscape:zoom="1.3382353"
     inkscape:cx="193.16484"
     inkscape:cy="158.04396"
     inkscape:window-width="1366"
     inkscape:window-height="705"
     inkscape:window-x="-8"
     inkscape:window-y="-8"
     inkscape:window-maximized="1"
     inkscape:current-layer="g1" />
  <g
     inkscape:groupmode="layer"
     inkscape:label="Image"
     id="g1"
     transform="translate(-40.5801,-59.715405)">
    <path
       style="fill:#000000"
       d="m 231.54768,270.29352 c -7.424,-0.80129 -14.08942,-4.47692 -1.8587,-1.87824 -14.82625,-4.54432 -22.548,-10.71811 -30.4179,-23.79398 -4.82582,-7.66756 -10.4408,-8.07564 -12.66342,-7.11216 7.79015,10.9342 -9.06048,-11.16632 -13.48649,-14.54004 -12.78549,-10.59434 -27.77376,-17.0759 -44.53144,-17.40882 -14.90657,-0.62217 -31.80838,-6.5826 -44.672258,-7.30365 17.109728,0.34572 33.450708,3.77433 50.344848,4.37633 10.67803,3.8311 23.64076,1.92811 36.3408,5.25184 1.23373,-0.18263 -2.74456,-6.54489 5.98801,0.48948 5.51317,4.71861 14.91134,8.25031 10.12037,1.38955 -9.9511,-8.84393 9.31576,0.79004 7.7951,8.03492 15.10789,24.89787 50.02526,35.37206 75.59807,20.37471 16.2117,-4.32611 18.82613,-27.08829 30.28225,-32.02979 5.53919,4.45466 10.8476,-3.38746 1.89318,4.76961 -5.69792,5.20668 -13.54465,19.30964 -2.70711,7.22286 12.27243,-15.75561 31.89096,-14.91936 49.64113,-16.37267 6.67014,-2.41688 32.8963,-1.0957 13.4774,0.3051 -13.79065,5.04308 -33.6463,-0.13018 -43.45191,10.17166 7.50007,-1.85221 13.61497,-3.03032 1.82751,0.16663 -21.03127,4.49186 -30.19454,27.2966 -48.26786,37.11302 -14.00359,9.53683 -27.03642,7.45064 -36.9928,2.07942 -9.92643,-2.59323 -14.01104,2.11 -1.30269,1.96971 14.64864,2.09959 -20.21396,0.31843 -2.61031,5.8855 7.79748,4.0507 40.52169,-5.16369 18.64639,3.06245 -16.21415,4.25614 -33.4406,-13.14637 -44.73628,-14.55372 7.30365,5.52536 24.66324,13.32889 8.55791,10.49258 13.32209,6.02805 28.42518,15.37479 43.01645,7.66478 22.89968,-6.51674 -10.00063,9.11987 -18.40374,5.48212 -2.51136,-0.18342 -5.00304,-0.62629 -7.42651,-1.3092 z m 34.07689,-19.50078 c 7.14136,0.62691 26.56914,-19.85694 14.02945,-11.92017 -3.41984,6.88708 -35.92286,16.41047 -14.27952,12.00399 z M 251,251 c -1.07385,-4.35008 -9.26463,4.13822 0,0 z m -36.44113,-3.5318 c 15.75823,2.53437 -26.13465,-20.59517 -11.80207,-5.35649 1.38658,1.01817 12.71786,10.33415 11.80207,5.35649 z M 221.5,243 c -5.2955,-4.56812 0.79259,3.68096 0,0 z m -35.73824,-11.00987 c -5.52276,-4.16336 3.71233,6.23934 0,0 z m 6.56906,-0.74013 c -3.58971,-4.83856 12.06079,7.60678 1.09256,-3.0339 -5.43108,-7.40632 -28.35344,-21.87185 -26.61882,-15.15222 8.72017,4.5593 16.20098,18.4119 25.52626,18.18612 z M 183,222.94098 c 2.30072,-2.34557 1.72473,3.71692 0,0 z m 110.12139,6.10003 c 8.9984,-10.64562 -13.18222,10.65996 0,0 z M 191,222 c -2.1832,-4.29992 -1.70241,3.97499 0,0 z m 125.72877,-14.60456 c -3.97286,-1.51717 -4.55789,6.12094 0,0 z M 127,203 c -7.47118,-4.13314 1.92992,3.80857 0,0 z m 70.33091,62.74298 c -9.22428,-11.4134 -30.71789,-27.23188 -33.6628,-34.63668 11.83914,12.27271 32.17746,23.1655 36.47466,37.21295 z m 80.73248,2.88202 c -12.37829,-3.84005 0,0 0,0 z m -7.67263,-6.44824 c 6.01446,-4.24578 30.35119,-29.30726 15.74985,-12.73183 -4.64513,4.81752 -9.10858,10.67097 -15.74985,12.73183 z M 284,257.09502 c 5.78571,-5.07673 25.52837,-18.18207 9.16979,-5.56575 -2.81352,1.93754 -5.34467,6.17985 -9.16979,5.56575 z m -82,-5.15404 c 2.30072,-2.34557 1.72473,3.71692 0,0 z M 288,250.5 c 9.63035,-9.44991 -6.72712,8.68159 0,0 z m 14,-2.35227 c 0.84006,-7.12491 19.76619,-17.27015 6.75261,-5.80902 -2.21153,1.97514 -4.04815,4.4463 -6.75261,5.80902 z M 186,242.5 c -5.93149,-8.01854 9.32047,9.1002 0,0 z m 44.5,-4.5 c 7.27804,-2.41076 11.04724,3.66297 0,0 z m 19.3125,0.31689 c 6.07143,-1.44651 -1.42627,2.13788 0,0 z M 294,235.70797 c 6.34156,-8.72262 16.70987,-18.32265 26.99353,-19.77359 C 310.3489,217.95529 301.03879,234.79035 294,235.70797 Z m -36.44873,0.34741 c 7.61638,-3.96239 12.71313,-3.77497 2.24343,0.13124 -1.57027,1.36119 -10.28716,2.4481 -2.24343,-0.13124 z M 220.5,234.4872 c -7.11705,-3.07263 -11.38779,-8.80486 -1.92656,-2.18475 7.34534,2.44233 12.45883,6.70457 1.92656,2.18475 z m -43.00555,-2.49335 c -3.31659,-6.52994 7.22506,5.83838 0,0 z M 311,233.68709 c 5.53541,-6.26899 8.83611,-6.96307 0,0 z m -90.49292,-2.67564 c 1.30154,-2.52331 3.6538,4.49078 0,0 z M 264,230.28224 c 3.95248,-3.04872 13.14045,-4.57042 3.23456,-0.71676 z m 6,0.28813 c 4.52036,-5.3839 4.88339,0.18588 0,0 z m 49,-2.01376 c 3.20123,-5.54324 21.12117,-11.14196 6.9701,-3.50664 -0.88774,-0.18229 -11.97828,9.20864 -6.9701,3.50664 z m -157.6125,-2.64328 c -9.5164,-8.65874 11.96092,8.5408 0,0 z m 53.1125,2.09149 c -11.28665,-6.45869 1.18302,-2.13277 1.31322,0.50063 l -0.9384,-0.35774 z M 206.87244,225.25 c -2.2413,-4.40464 5.91381,6.73901 0,0 z M 147.5,221.45284 c -14.93456,-8.62112 18.65214,8.15599 0.87023,0.41995 z m 178.58333,-1.73581 c 4.69201,-5.79807 5.00218,-0.76544 0,0 z M 238.25,218.31067 c 8.1399,-1.90411 1.2712,2.15252 0,0 z m -7,-1 c 8.1399,-1.90411 1.2712,2.15252 0,0 z m -24.75,-1.03745 c -10.4715,-3.45456 13.14752,2.05765 0,0 z m 9.3125,0.0437 c 6.07143,-1.44651 -1.42627,2.13788 0,0 z m 4,0 c 6.07143,-1.44651 -1.42627,2.13788 0,0 z m -65.49073,-2.64297 c -9.99259,-5.25703 12.68831,3.76062 0,0 z M 219,213.14783 c -23.49024,-4.61995 31.21683,2.23788 6.20215,0.8726 -2.06953,-0.27537 -4.13689,-0.56689 -6.20215,-0.8726 z m 29.08333,1.48504 c 6.87934,-1.92304 21.78507,-0.48659 6.29109,0.2264 l -3.16058,0.10305 z m -1.99125,-3.05828 c 8.79385,-2.06485 37.06,-1.81076 13.41548,0.25316 -4.46948,0.16124 -8.96675,0.32684 -13.41548,-0.25316 z m -102.27958,-1.2577 c 6.07143,-1.44651 -1.42627,2.13788 0,0 z m 131.4375,-0.006 c 8.1399,-1.90411 1.2712,2.15252 0,0 z m -72.75,-1.79988 c -11.84344,0.18386 -0.35452,-3.75189 -11.41477,-3.96956 -33.05027,-3.38966 -66.36768,-5.27514 -99.069753,-11.55322 -9.075802,-1.74878 -28.810551,-6.78928 -9.056416,-9.96585 7.806233,-1.16957 26.329999,-9.72722 7.085673,-5.28744 -8.843934,1.38192 -42.83971,9.09086 -17.925802,13.69387 7.282504,0.62939 16.485222,4.47689 3.420785,2.54738 -9.460313,1.81497 -40.956614,-6.94897 -17.179554,-11.13638 19.724407,-4.38502 40.456557,-6.45374 58.214847,-16.85686 6.03355,-3.1502 -4.90059,6.41152 4.3178,1.76365 14.40623,-7.54569 24.67477,-21.38451 34.33885,-34.11267 3.39213,-4.94087 18.34316,-25.15869 12.65379,-20.64274 -4.53243,6.75491 -25.8258,30.96029 -13.03557,12.62446 8.05489,-16.00624 27.6962,-28.045963 35.48949,-32.173773 3.83837,-4.799061 8.41626,-8.539392 8.93636,-4.908052 20.38483,-10.452504 44.47288,-14.407174 66.91344,-9.105163 -8.99858,-9.00422 -35.50371,-3.570291 -37.41212,-6.727305 18.89528,-9.639864 40.83512,-0.05617 58.10766,8.684746 18.53648,11.838871 34.03869,28.851727 46.98858,45.603377 0.87709,8.07528 21.89559,26.05749 17.55223,24.86461 -5.77664,-6.42821 -24.08268,-23.72392 -21.3522,-22.9087 5.78542,2.49495 -10.68148,-16.67602 -14.58575,-21.55865 -5.25983,-6.5929 -24.72562,-23.019081 -23.66995,-16.886909 17.21002,15.389369 31.88003,33.198379 43.61458,53.027119 10.90662,17.56055 20.24884,19.56107 36.85685,27.689 10.16926,2.89332 -9.04361,0.089 4.98333,4.01201 15.75535,6.46927 34.02615,3.69466 49.11245,11.66222 5.85022,7.76881 -23.73338,5.76256 -19.84538,9.63691 -9.28993,2.25816 -23.79401,-0.24993 -5.83332,-2.47156 6.6863,0.0968 25.57123,-7.00122 9.08576,-9.75604 -6.07785,-3.33775 -29.26767,-5.55878 -10.37183,0.45012 4.00829,11.54618 -23.91821,7.32283 -32.27798,11.04978 -26.83389,2.40137 -53.33045,7.61056 -80.34811,8.10975 -3.81372,-0.28297 -1.85653,3.90511 0.51679,2.75533 6.46396,1.08927 -19.3469,1.82037 -25.37929,1.55235 -15.51279,1.09876 -43.55308,-3.83832 -51.20013,-0.7266 10.84832,3.68474 -6.31397,1.24423 -8.23134,1.02079 z M 204,207 c -1.54331,-3.33597 -2.07829,3.67886 0,0 z m 74.74406,-0.91658 c -6.28496,-3.98073 -41.67181,0.29165 -18.83424,1.399 6.29368,-0.0477 12.6563,-0.0282 18.83424,-1.399 z m -38.48031,-0.78735 c -6.76182,-0.65405 -9.46163,1.13054 0,0 z m -30.50209,-0.98315 c -5.74052,-1.00244 -4.51657,1.42455 0,0 z M 268.5,197.39253 c 20.31869,3.00856 41.27019,-13.33232 30.34354,-34.31889 -5.62739,-32.25969 -41.88359,-58.37321 -73.82013,-44.83699 -27.33892,10.67711 -43.88505,42.3071 -38.77341,70.92894 25.07197,11.86512 55.23705,11.06317 82.25,8.22694 z m 30.41667,-5.01676 c -4.59005,-0.80289 -5.7121,3.84611 0,0 z M 126,192.20353 c -8.25328,-1.17663 -31.620163,-9.33665 -11.1439,-13.44858 9.80522,-2.57185 25.41671,-8.06249 15.89986,-6.74186 4.64694,-6.91514 22.38507,-18.58003 29.72191,-33.11108 16.10404,-28.66724 43.86369,-52.338579 77.2569,-56.741734 5.31307,-6.432915 -22.93478,-0.618769 -28.15679,4.517293 -20.75057,8.885445 -38.24118,24.089321 -49.87012,43.489041 -5.81265,15.64334 -19.05262,29.56695 -37.13114,40.62474 -7.82011,2.4565 -39.985241,15.57516 -17.06092,18.38988 6.7651,1.30524 13.53264,3.24476 20.4842,3.0223 z m 63,0.40346 c -2.89423,-3.95737 -4.24324,2.45878 0,0 z m -5.86078,-2.64026 c -10.57906,-6.81865 1.98248,5.83716 0,0 z m 125.44622,-3.33403 c 8.52288,-8.98534 -3.77701,6.98405 7.81491,-0.48934 12.82309,-11.34913 -2.11189,-23.95289 -3.56625,-32.65979 -8.99194,-34.90856 -46.10492,-63.847478 -82.95122,-54.555624 -32.42869,7.464834 -56.87513,37.778244 -60.63426,70.355364 2.95374,-25.05435 -15.94117,22.40174 5.66564,17.28598 -8.39404,-13.28383 6.79122,8.13211 6.80608,-6.85233 5.32146,-19.85196 9.92672,-41.77394 27.99482,-54.30558 20.7323,-16.9758 53.96739,-16.30315 72.22997,4.1513 15.21272,15.41251 22.98649,40.94045 21.33696,60.49059 -5.42283,5.70243 5.09001,-2.5513 5.30335,-3.42057 z m 6.49351,-10.21603 c 1.0476,-3.67133 0.27633,4.49988 0,0 z M 316.28601,169.5 c 0.84289,-9.41909 0.3363,10.84748 0,0 z M 366.75,189.07022 c 11.54957,-1.01931 -8.13157,-14.31313 1.25,-3.87891 -7.54042,2.63957 -12.2301,7.77544 -1.25,3.87891 z m 14.46545,-0.0438 c 20.05307,-1.76744 -17.15764,-15.70057 0.14442,-4.15002 -4.40734,6.01087 -14.55761,6.3757 -0.14442,4.15002 z M 425,189.54009 c 6.19016,-7.24403 -12.07574,2.07689 0,0 z M 56.696896,189.30045 c -0.385392,-7.45863 -4.697081,2.50427 0,0 z m 91.850654,-0.22351 c -12.27886,1.07736 -4.46336,-14.96275 -8.41578,-10.98306 -19.29743,7.2311 0.12891,12.38351 8.41578,10.98306 z m 201.9361,-1.60073 c 11.81136,-1.72074 -7.94142,-11.33918 -6.03164,-0.88548 -12.83607,4.86822 0.10023,2.75591 5.33188,1.07429 z M 168,188 c -7.02245,-4.4262 0.71215,4.22859 0,0 z m 156.24598,-1.03319 c 19.06268,-10.27793 -8.14093,-30.3781 -11.94941,-40.28885 4.43801,13.925 20.44243,30.33207 8.39698,41.48094 1.16424,-0.45527 2.36701,-0.79842 3.55243,-1.19209 z M 88,187 c -2.581443,-4.3634 -2.416454,4.24388 0,0 z m 73.43423,-1.7769 c -9.46246,-9.74741 3.00853,2.36005 -0.49555,-9.48664 0.99809,-8.46234 13.80692,-26.8795 11.23643,-27.3523 -5.37978,11.65869 -34.26274,33.42395 -9.25242,39.36602 l 0.0472,-0.75251 z m 21.29604,0.84618 c -2.92446,-4.95156 -0.53452,5.8682 0,0 z m 121.6997,1.04403 c -0.29268,-6.27663 -3.80606,1.02967 0,0 z m 35.06467,-3.51921 c 6.08609,-5.92518 -8.42971,-11.10789 -3.17378,-0.14818 -2.15895,3.27519 3.05955,2.48962 3.17378,0.14818 z M 372,182 c -2.58145,-4.3634 -2.41646,4.24388 0,0 z m 0.91667,-3.40451 c -5.589,-5.60081 -31.92868,-16.5745 -14.21199,-3.71167 4.71764,1.29 9.18354,3.85971 14.21199,3.71167 z m -225.39021,-3.40236 c -3.30996,-0.27889 -2.32548,3.87076 0,0 z m -35.79729,-1.7973 c -4.52609,-2.50047 -1.06469,2.35527 0,0 z M 368,171.52568 c -3.87163,-5.09889 -9.20791,-0.63646 0,0 z M 112.5,170 c -1.62261,-3.20564 -5.05022,4.62878 0,0 z M 347,168.5 c -7.76803,-6.33881 2.73872,5.15225 0,0 z m -5,-0.5 c -2.1832,-4.29992 -1.70241,3.97499 0,0 z m 7,-4.31291 C 331.47551,146.45796 323.23494,121.73318 304.68993,105.17963 289.9099,91.057826 270.32463,78.422496 249.08896,80.637627 c 8.62099,3.802662 32.70606,8.833623 44.03738,19.932043 22.17258,15.26819 30.88629,42.26916 49.59781,60.61592 1.15807,0.26182 5.88852,6.12395 6.27585,2.5015 z M 146.5,162 c 4.10424,-7.92262 -9.21147,8.70764 0,0 z M 340,161.5 c -5.36991,-3.58989 3.21123,5.3014 0,0 z m -186.87244,-0.25 c 2.67641,-4.23789 -7.0976,6.48558 0,0 z M 138.427,157.52722 c 4.13536,-6.44523 -9.30533,7.58452 0,0 z m 19.05375,-6.3798 c -5.6819,3.09967 -3.43104,8.90421 0,0 z m 174.22321,2.48874 c -7.97438,-9.80741 5.0139,10.26647 0,0 z M 144,150.88197 c -2.85302,-2.52058 -1.20485,5.77107 0,0 z m 24.9731,-14.26947 c -7.5889,6.44426 -6.18631,11.19259 0,0 z m 154.08453,2.25028 c -6.38083,-7.3821 6.44507,11.35248 0,0 z M 171,129.88197 c -2.85302,-2.52058 -1.20485,5.77107 0,0 z m 143.14159,-5.09005 c -6.59731,-7.74083 5.85957,10.74689 0,0 z m -137.61513,-1.59879 c -3.30996,-0.27889 -2.32548,3.87076 0,0 z m 4.01613,-22.98387 c -7.36872,1.51325 -6.81871,11.09914 0,0 z M 295,105.2 c -2.69425,-8.395427 -5.41158,0.61165 0,0 z M 207,94 c -1.54331,-3.335972 -2.07829,3.67886 0,0 z m -11.87244,-2.66372 c 2.17679,-4.652045 -8.09427,6.927508 0,0 z M 282.51633,82.75 c -5.93341,-5.838163 -25.77444,-9.3859 -8.98173,-1.405089 1.48575,0.961244 16.1073,8.696147 8.98173,1.405089 z M 246.5,79 c -3.08356,-3.991071 -4.6542,4.040314 0,0 z M 244,70.559017 c -2.20225,-4.144768 -2.69949,2.285324 0,0 z M 225.27652,209.39014 c 9.31643,-2.50365 17.09532,1.78305 3.22734,0.50606 -1.1093,0.0557 -2.16025,-0.2646 -3.22734,-0.50606 z m 116.99251,-2.08313 3.06798,0.27099 -3.06798,-0.27094 z M 375,199.83227 c 7.29459,-2.33721 17.07917,1.08742 3.15173,0.2202 z M 69,197 c -16.075317,-2.21182 21.945189,1.10366 0,0 z m -17.25,-0.81037 c -11.99279,-2.06592 -10.765228,-3.69685 0.408304,-2.01227 9.843483,0.9668 12.547915,2.33727 -0.408304,2.01227 z M 415,196.05902 c 8.8022,0.14543 27.92313,-5.50251 30.17083,-3.7744 -9.65232,3.42583 -20.05074,3.58064 -30.17083,3.7744 z M 42,189 c -6.110437,-3.68363 10.105916,3.07122 0,0 z m 363.58295,0.13421 c -1.57603,-8.3578 3.65688,3.71903 0,0 z m 42.92689,-1.11829 c -12.48766,-3.56243 -5.01542,-5.22431 2.50404,0.8162 -0.96765,0.66459 -1.65492,-0.6439 -2.50404,-0.8162 z m -19.39794,-5.09691 c -12.9949,-4.09309 18.3664,2.81921 0,0 z M 47.8125,181.31689 c 6.071427,-1.44651 -1.426276,2.13788 0,0 z m 4.9375,-0.97917 c 5.819753,-2.04216 0.861817,2.17783 0,0 z M 407,178 c -4.58081,-3.32857 12.129,3.82903 0,0 z M 62,177.60699 c 3.714451,-3.9955 2.718026,1.89412 0,0 z M 394,173 c -2.37176,-3.80494 5.67003,4.03071 0,0 z m -10.8125,-2.68311 c -10.26293,-5.25354 13.48643,4.33101 0,0 z M 102,166 c 8.19128,-4.52802 -2.487156,3.47249 0,0 z m 266,-2.47288 c -9.35212,-4.66392 -11.62132,-9.65653 -0.99978,-2.25349 6.23002,2.90137 13.01244,8.52145 0.99978,2.25349 z m -256.08417,-1.57444 c 9.49681,-2.50871 17.88404,-14.22987 24.79117,-16.74221 -7.30601,6.3306 -14.93271,15.28447 -24.79117,16.74221 z m 277.35926,-0.433 c -9.80693,-3.62624 -9.16074,-6.49635 0.77064,-1.15846 2.30563,0.10988 5.03529,6.22259 -0.77064,1.15846 z M 362.5,146.531 c -5.53977,-7.37512 9.61541,7.26183 0,0 z m -15.04705,-2.781 c -9.55145,-9.98351 9.60235,8.7826 0.17928,0.18985 z m -207.78654,1.18739 c 6.14864,-9.09289 10.31756,-8.7509 0,0 z M 121,144.62244 c 3.39272,-5.51379 4.0725,-1.23673 0,0 z m 4,-3 c 3.39272,-5.51379 4.0725,-1.23673 0,0 z m 228.18217,-3.69826 c -7.93713,-10.12437 8.9674,8.01503 0.25401,0.22458 z M 129,137.60699 c 3.71445,-3.9955 2.71802,1.89412 0,0 z m 17.10776,-6.1335 c 12.79932,-14.6505 -10.08794,14.86178 0,0 z M 341.27814,135.75 c -6.30832,-8.63511 5.01976,3.20777 0,0 z M 135,131.5 c 11.04035,-10.11821 -8.24455,9.63421 0,0 z m 208.68767,-3.53552 c -7.77702,-11.39907 6.30507,2.46964 0,0 z m -201.70265,-5.47163 c 8.57186,-10.03049 -5.13158,7.35781 0,0 z m 9.65335,1.00715 c 4.57896,-6.3799 -0.83036,5.6188 0,0 z m 172.74922,-1.03121 c -4.61172,-10.10123 6.89905,9.07612 0,0 z M 334.44476,114.25 c -3.54017,-6.53371 -22.11396,-28.345973 -6.7537,-11.45178 3.46783,3.52744 18.14309,26.66274 6.7537,11.45178 z M 326.5,115.20737 c -11.00265,-13.75505 8.8491,7.47695 0,0 z M 153.60288,106.5 c 3.80462,-6.637873 24.1208,-24.262146 9.21448,-8.775368 -1.14958,0.974466 -17.96617,19.697948 -9.21448,8.775368 z m 18.04013,-5.13648 c 11.23487,-10.594684 43.24398,-29.615268 49.42677,-24.229618 -14.29887,8.103484 -29.72631,8.963091 -42.41821,20.679387 -1.23078,0.622003 -15.15066,9.829661 -7.00856,3.550231 z M 208.5,81 c -0.21037,-4.055555 -4.32779,4.800534 0,0 z M 315,102.94098 c 2.30072,-2.34557 1.72473,3.71692 0,0 z M 168.07257,96.601581 c 5.75941,-8.264722 13.99907,-9.102674 2.84728,-0.956692 0.0425,0.136116 -6.41513,6.074371 -2.84728,0.956692 z M 174,87.5 c 6.92903,-6.072701 -1.87364,4.963372 0,0 z m 140.40499,-2.641654 c -4.08959,-6.287693 7.77412,7.705529 0,0 z M 173,85.570368 c 4.52036,-5.383897 4.88339,0.185883 0,0 z m 130.66855,-4.051634 c -15.82479,-11.938909 13.60086,7.506766 3.10833,2.272892 z M 181,82.137042 c 18.91588,-15.194241 43.74933,-21.349603 67.4925,-22.421637 8.92524,1.024257 36.7206,9.985018 13.96945,4.683765 -14.999,0.979856 -30.23493,-2.362542 -43.90509,5.204359 -7.02968,3.084429 -21.79299,4.904455 -6.63286,-0.01235 18.35678,-9.578708 -19.19138,4.567687 -24.77925,9.752288 -1.35333,0.203329 -12.43834,8.66195 -6.14475,2.793574 z m 5,1.460192 c 4.65428,-5.206659 22.09686,-12.008635 6.98458,-3.34724 -2.64463,0.461903 -4.01768,4.185702 -6.98458,3.34724 z m 112.45528,-0.948097 c -7.70428,-8.0162 5.18967,2.160949 0,0 z m -7.5095,-9.462658 c -7.00609,-3.402571 -21.63689,-13.1286 -6.18925,-5.016093 2.85262,1.082824 16.91702,11.585745 6.18925,5.016093 z"
       id="path1"
       sodipodi:nodetypes="ccccccccccccccccccccccccccccccccccccccccccccccccccccccccccccccccccccccccccccccccccccccccccccccccccccccccccccccccccccccccccccccccccccccccccccccccccccccccccccccccccccccccccccccccccccccccccccccccccccccccccccccccccccccccccccccccccccccccccccccccccccccccccccccccccccccccccccccccccccccccccccccccccccccccccccccccccccccccccccccccccccccccccccccccccccccccccccccccccccccccccccccccccccccccccccccccccccccccccccccccccccccccccccccccccccccccccccccccccscccccsscccccccc" />
  </g>
</svg>
